<svg viewBox="0 0 512 512" xmlns="http://www.w3.org/2000/svg"><path d="M208 416c-22.126 0-43.032-2.616-58.867-7.367A85.197 85.197 0 0 1 136 403.61v20.3c1.317 4.462 25.3 16.091 72 16.091s70.684-11.629 72-16.09v-20.301a85.187 85.187 0 0 1-13.133 5.024C251.032 413.383 230.126 416 208 416ZM208 456c-22.126 0-43.032-2.616-58.867-7.367A85.197 85.197 0 0 1 136 443.61v20.313c1.363 4.472 25.35 16.078 72 16.078s70.637-11.606 72-16.078v-20.313a85.187 85.187 0 0 1-13.133 5.024C251.032 453.383 230.126 456 208 456ZM208 376c-22.126 0-43.032-2.616-58.867-7.367A85.197 85.197 0 0 1 136 363.61v20.3c1.317 4.462 25.3 16.091 72 16.091s70.684-11.629 72-16.09v-20.301a85.187 85.187 0 0 1-13.133 5.024C251.032 373.383 230.126 376 208 376ZM176 228.284a20.284 20.284 0 0 0 14.343-34.627l-32-32a36.284 36.284 0 0 1 51.314-51.314l20 20-.286.287a88.056 88.056 0 0 1 42.816 25.239 15.7 15.7 0 0 0 3.947-23.407L210.24 52.448A55.732 55.732 0 0 0 141.97 37.96L80 68.944V184h33.373a23.844 23.844 0 0 1 16.97 7.03l31.314 31.313A20.151 20.151 0 0 0 176 228.284ZM208 336c-22.126 0-43.032-2.616-58.867-7.367A85.197 85.197 0 0 1 136 323.61v20.3c1.317 4.462 25.3 16.091 72 16.091s70.684-11.629 72-16.09v-20.301a85.187 85.187 0 0 1-13.133 5.024C251.032 333.383 230.126 336 208 336Z" fill="#75e6da" class="fill-000000"></path><path d="M169.657 121.657a20.273 20.273 0 0 0-5.583 18.065 87.074 87.074 0 0 1 40.676-11.658l-6.407-6.407a20.284 20.284 0 0 0-28.686 0ZM279.972 304.006c-.668-1.59-7.122-7.536-27.886-11.87a87.843 87.843 0 0 1-88.172 0c-20.764 4.334-27.218 10.28-27.886 11.87C137.66 308.538 161.638 320 208 320s70.34-11.462 71.972-15.994ZM208 144a71.368 71.368 0 0 0-35.397 9.288l29.054 29.055a36.284 36.284 0 0 1-51.314 51.314L136.086 219.4A71.997 71.997 0 1 0 208 144ZM32 72h32v112H32zM352 64h16V16h-56v16h28.686l-58.343 58.343 11.314 11.314L352 43.314V64zM10.345 362.345l95.996-96.003 11.314 11.313-95.996 96.004zM32 272h16v-16h16v-16H48v-16H32v16H16v16h16v16zM80 384H64v24H40v16h24v24h16v-24h24v-16H80v-24zM404 296c-23.16 0-45.034-2.606-61.595-7.337a88.859 88.859 0 0 1-14.405-5.34v20.52c.583 1.401 5.577 6.019 21.41 10.147 14.86 3.876 34.248 6.01 54.59 6.01s39.73-2.134 54.59-6.01c15.833-4.128 20.827-8.746 21.41-10.148v-20.52a88.859 88.859 0 0 1-14.405 5.34C449.035 293.395 427.159 296 404 296ZM328 172a76 76 0 1 0 76-76 76.086 76.086 0 0 0-76 76Zm40-4h14.775l-3.06-21.421A30.294 30.294 0 1 1 440 142.294V152h-16v-9.706a14.294 14.294 0 1 0-28.444 2.022L398.939 168H424v16h-27.055L392 193.889V200h48v16h-64v-25.889l3.056-6.111H368Z" fill="#75e6da" class="fill-000000"></path><path d="M404 264a91.435 91.435 0 0 1-45.462-12.041c-22.324 4.3-29.437 10.223-30.463 12.042.873 1.568 6.064 6.007 21.334 9.99C364.271 277.865 383.66 280 404 280s39.73-2.134 54.59-6.01c15.271-3.982 20.462-8.42 21.335-9.989-1.026-1.819-8.14-7.743-30.463-12.042A91.435 91.435 0 0 1 404 264ZM404 376c-23.16 0-45.034-2.606-61.595-7.337a88.859 88.859 0 0 1-14.405-5.34v20.52c.583 1.401 5.577 6.019 21.41 10.147 14.86 3.876 34.248 6.01 54.59 6.01s39.73-2.134 54.59-6.01c15.833-4.128 20.827-8.746 21.41-10.148v-20.52a88.859 88.859 0 0 1-14.405 5.34C449.035 373.395 427.159 376 404 376ZM404 416c-23.16 0-45.034-2.606-61.595-7.337a88.859 88.859 0 0 1-14.405-5.34v20.52c.583 1.401 5.577 6.019 21.41 10.147 14.86 3.876 34.248 6.01 54.59 6.01s39.73-2.134 54.59-6.01c15.833-4.128 20.827-8.746 21.41-10.148v-20.52a88.859 88.859 0 0 1-14.405 5.34C449.035 413.395 427.159 416 404 416ZM404 456c-23.16 0-45.034-2.606-61.595-7.337a88.859 88.859 0 0 1-14.405-5.34v20.525c.599 1.412 5.607 6.022 21.41 10.142 14.86 3.876 34.248 6.01 54.59 6.01s39.73-2.134 54.59-6.01c15.803-4.12 20.811-8.73 21.41-10.142v-20.525a88.859 88.859 0 0 1-14.405 5.34C449.035 453.394 427.159 456 404 456ZM404 336c-23.16 0-45.034-2.606-61.595-7.337a88.859 88.859 0 0 1-14.405-5.34v20.52c.583 1.401 5.577 6.019 21.41 10.147 14.86 3.876 34.248 6.01 54.59 6.01s39.73-2.134 54.59-6.01c15.833-4.128 20.827-8.746 21.41-10.148v-20.52a88.859 88.859 0 0 1-14.405 5.34C449.035 333.395 427.159 336 404 336Z" fill="#75e6da" class="fill-000000"></path></svg>